<svg xmlns="http://www.w3.org/2000/svg" viewBox="0 0 2000 2000">
  <circle cx="1000" cy="1000" r="1000" fill="#50AF95"/>
  <path d="M1275 600h-550c-16.67 0-29.17 12.5-29.17 29.17v200c0 16.67 12.5 29.16 29.17 29.16h166.67v41.67h-245.84c-16.66 0-29.16 12.5-29.16 29.17v54.17c0 16.67 12.5 29.16 29.16 29.16H645.83c-75 8.34-129.17 29.17-129.17 54.17 0 29.17 75 54.17 179.17 62.5v241.67c0 16.66 12.5 29.16 29.17 29.16h54.17c16.66 0 29.16-12.5 29.16-29.16v-237.5c41.67 0 83.34 0 129.17-4.17v241.67c0 16.66 12.5 29.16 29.17 29.16h54.17c16.66 0 29.16-12.5 29.16-29.16v-245.84c145.84-12.5 254.17-54.16 254.17-108.33 0-50-100-91.67-237.5-104.17h241.67c16.66 0 29.16-12.5 29.16-29.16v-54.17c0-16.67-12.5-29.17-29.16-29.17h-245.84V858.33h166.67c16.67 0 29.17-12.5 29.17-29.16v-200c0-16.67-12.5-29.17-29.17-29.17zM937.5 1145.83c-37.5 4.17-79.17 4.17-120.84 4.17v-4.17c41.67 0 83.34 0 120.84 4.17zm0-133.33c-37.5 0-79.17 0-120.84 4.17 0 0 0-4.17 0-8.34 41.67 4.17 83.34 4.17 120.84 4.17zm120.84 133.33c120.83 8.34 200 29.17 200 45.84 0 20.83-87.5 41.66-200 45.83v-91.67zm0-133.33v-8.34c41.67 0 83.33 0 125 4.17-41.67 0-83.33 0-125 4.17z" fill="#fff"/>
</svg>
